<svg width="17" height="16" viewBox="0 0 17 16" fill="none" xmlns="http://www.w3.org/2000/svg">
<path d="M10.3999 3.46004C10.6519 3.16956 10.8441 2.83215 10.9654 2.4672C11.0866 2.10224 11.1346 1.71693 11.1065 1.33337C10.3328 1.39583 9.61455 1.75974 9.10655 2.34671C8.86328 2.62802 8.67893 2.95529 8.56442 3.30914C8.44991 3.66298 8.40756 4.0362 8.43988 4.40671C8.81731 4.40985 9.19041 4.3261 9.53028 4.16195C9.87016 3.99779 10.1677 3.75762 10.3999 3.46004ZM12.0799 8.42004C12.0844 7.9092 12.2189 7.40792 12.4709 6.96351C12.7228 6.5191 13.0838 6.14621 13.5199 5.88004C13.2447 5.48353 12.8809 5.1566 12.4574 4.92516C12.0338 4.69372 11.5622 4.56414 11.0799 4.54671C10.0399 4.44004 9.07988 5.15337 8.52655 5.15337C7.97322 5.15337 7.19322 4.56004 6.32655 4.57337C5.75997 4.59204 5.2079 4.75723 4.72418 5.05283C4.24046 5.34843 3.84162 5.76436 3.56655 6.26004C2.39322 8.30004 3.26655 11.3334 4.43988 12.98C4.97322 13.7867 5.63988 14.7 6.51988 14.6667C7.39988 14.6334 7.68655 14.12 8.70655 14.12C9.72655 14.12 10.0399 14.6667 10.9065 14.6467C11.7732 14.6267 12.3865 13.82 12.9465 13.0134C13.3432 12.4277 13.6531 11.7878 13.8665 11.1134C13.3382 10.888 12.8874 10.5129 12.5699 10.0342C12.2524 9.5556 12.082 8.99442 12.0799 8.42004Z" fill="black"/>
</svg>
