<svg width="32" height="33" viewBox="0 0 32 33" fill="none" xmlns="http://www.w3.org/2000/svg">
<path d="M16.0001 3.06665C8.64008 3.06665 2.66675 9.03998 2.66675 16.4C2.66675 23.76 8.64008 29.7333 16.0001 29.7333C23.3601 29.7333 29.3334 23.76 29.3334 16.4C29.3334 9.03998 23.3601 3.06665 16.0001 3.06665ZM20.6668 17.4H13.7467L16.0401 19.6933C16.4267 20.08 16.4267 20.72 16.0401 21.1067C15.8401 21.3067 15.5867 21.4 15.3334 21.4C15.0801 21.4 14.8267 21.3067 14.6267 21.1067L10.6267 17.1067C10.2401 16.72 10.2401 16.08 10.6267 15.6933L14.6267 11.6933C15.0134 11.3067 15.6534 11.3067 16.0401 11.6933C16.4267 12.08 16.4267 12.72 16.0401 13.1067L13.7467 15.4H20.6668C21.2134 15.4 21.6668 15.8533 21.6668 16.4C21.6668 16.9467 21.2134 17.4 20.6668 17.4Z" fill="white"/>
</svg>
