<svg width="26" height="26" viewBox="0 0 26 26" fill="none" xmlns="http://www.w3.org/2000/svg">
<path d="M4.08349 14.9304C3.89257 14.7395 3.73878 14.5008 3.63801 14.2198C3.53725 13.9387 3.47361 13.6417 3.4577 13.3182C3.43118 12.772 3.51073 12.2788 3.70165 11.8227C3.88727 11.3719 4.16304 10.9582 4.53427 10.587C5.07521 10.0461 5.78055 9.59528 6.65029 9.24526C7.52003 8.89525 8.47993 8.63538 9.52468 8.47098C10.58 8.30658 11.6513 8.22173 12.7491 8.21642C13.8469 8.22173 14.9181 8.30658 15.9629 8.47098C17.0023 8.64069 17.9569 8.89525 18.8108 9.23996C19.6699 9.58998 20.3752 10.0408 20.9268 10.5923C21.2874 10.9529 21.5685 11.3613 21.7594 11.8068C21.9556 12.2575 22.0511 12.756 22.0352 13.3023C22.0299 13.9758 21.823 14.5114 21.4306 14.9039C21.2821 15.0524 21.1018 15.1691 20.9056 15.238C20.704 15.3122 20.4866 15.3388 20.2533 15.2963L17.2887 14.7925C17.0607 14.7554 16.8697 14.7024 16.7053 14.6334C16.5462 14.5698 16.4084 14.4849 16.3076 14.3842C16.1803 14.2569 16.0902 14.0925 16.0424 13.8963C15.9894 13.7053 15.9629 13.4773 15.9629 13.2227L15.947 12.4007C15.947 12.2841 15.9045 12.1886 15.8197 12.1037C15.7773 12.0613 15.7348 12.0295 15.6818 11.9977C15.6235 11.9712 15.5757 11.9553 15.5333 11.934C15.2628 11.8545 14.8704 11.7908 14.3613 11.7484C13.8469 11.7113 13.3112 11.6848 12.7544 11.6795C12.1869 11.6848 11.6513 11.7007 11.1316 11.7431C10.6225 11.7855 10.2353 11.8545 9.95955 11.9393C9.92243 11.9553 9.8747 11.9712 9.82166 11.9924C9.76333 12.0189 9.7156 12.056 9.66787 12.1037C9.57771 12.1939 9.54059 12.2947 9.54059 12.4113L9.53528 13.2121C9.53528 13.4773 9.50877 13.7053 9.45043 13.891C9.4027 14.0872 9.31785 14.2463 9.18527 14.3789C9.0845 14.4796 8.95722 14.5645 8.79282 14.6334C8.62842 14.7024 8.4375 14.7554 8.21476 14.7978L5.21309 15.3069C4.97975 15.3494 4.77292 15.3335 4.582 15.2592C4.39639 15.1797 4.23198 15.0789 4.08349 14.9304Z" stroke="white" stroke-width="1.08" stroke-miterlimit="10"/>
</svg>
