<svg width="16" height="16" viewBox="0 0 16 16" fill="none" xmlns="http://www.w3.org/2000/svg">
<path d="M13.9819 11.798C13.9819 12.014 13.9339 12.236 13.8319 12.452C13.7299 12.668 13.5979 12.872 13.4239 13.064C13.1299 13.388 12.8059 13.622 12.4399 13.772C12.0799 13.922 11.6899 14 11.2699 14C10.6579 14 10.0039 13.856 9.31394 13.562C8.62394 13.268 7.93394 12.872 7.24994 12.374C6.55994 11.87 5.90594 11.312 5.28194 10.694C4.66394 10.07 4.10594 9.416 3.60794 8.732C3.11594 8.048 2.71994 7.364 2.43194 6.686C2.14394 6.002 1.99994 5.348 1.99994 4.724C1.99994 4.316 2.07194 3.926 2.21594 3.566C2.35994 3.2 2.58794 2.864 2.90594 2.564C3.28994 2.186 3.70994 2 4.15394 2C4.32194 2 4.48994 2.036 4.63994 2.108C4.79594 2.18 4.93394 2.288 5.04194 2.444L6.43394 4.406C6.54194 4.556 6.61994 4.694 6.67394 4.826C6.72794 4.952 6.75794 5.078 6.75794 5.192C6.75794 5.336 6.71594 5.48 6.63194 5.618C6.55394 5.756 6.43994 5.9 6.29594 6.044L5.83994 6.518C5.77394 6.584 5.74394 6.662 5.74394 6.758C5.74394 6.806 5.74994 6.848 5.76194 6.896C5.77994 6.944 5.79794 6.98 5.80994 7.016C5.91794 7.214 6.10394 7.472 6.36794 7.784C6.63794 8.096 6.92594 8.414 7.23794 8.732C7.56194 9.05 7.87394 9.344 8.19194 9.614C8.50394 9.878 8.76194 10.058 8.96594 10.166C8.99594 10.178 9.03194 10.196 9.07394 10.214C9.12194 10.232 9.16994 10.238 9.22394 10.238C9.32594 10.238 9.40394 10.202 9.46994 10.136L9.92594 9.686C10.0759 9.536 10.2199 9.422 10.3579 9.35C10.4959 9.266 10.6339 9.224 10.7839 9.224C10.8979 9.224 11.0179 9.248 11.1499 9.302C11.2819 9.356 11.4199 9.434 11.5699 9.536L13.5559 10.946C13.7119 11.054 13.8199 11.18 13.8859 11.33C13.9459 11.48 13.9819 11.63 13.9819 11.798Z" stroke="white" stroke-width="0.864" stroke-miterlimit="10"/>
</svg>
