<svg width="16" height="17" viewBox="0 0 16 17" fill="none" xmlns="http://www.w3.org/2000/svg">
<path d="M10 15.8866H6.00004C2.38004 15.8866 0.833374 14.34 0.833374 10.72V6.71998C0.833374 3.09998 2.38004 1.55331 6.00004 1.55331H10C13.62 1.55331 15.1667 3.09998 15.1667 6.71998V10.72C15.1667 14.34 13.62 15.8866 10 15.8866ZM6.00004 2.55331C2.92671 2.55331 1.83337 3.64665 1.83337 6.71998V10.72C1.83337 13.7933 2.92671 14.8866 6.00004 14.8866H10C13.0734 14.8866 14.1667 13.7933 14.1667 10.72V6.71998C14.1667 3.64665 13.0734 2.55331 10 2.55331H6.00004Z" fill="white"/>
<path d="M7.05334 11.1067C6.92 11.1067 6.79334 11.0533 6.7 10.96L4.81333 9.07334C4.62 8.88001 4.62 8.56001 4.81333 8.36667C5.00667 8.17334 5.32667 8.17334 5.52 8.36667L7.05334 9.90001L10.48 6.47334C10.6733 6.28001 10.9933 6.28001 11.1867 6.47334C11.38 6.66667 11.38 6.98667 11.1867 7.18L7.40667 10.96C7.31334 11.0533 7.18667 11.1067 7.05334 11.1067Z" fill="white"/>
</svg>
