<svg width="16" height="16" viewBox="0 0 16 16" fill="none" xmlns="http://www.w3.org/2000/svg">
<path d="M10.4748 11.182L4.81796 5.52514C4.62468 5.33186 4.62468 5.01131 4.81796 4.81803C5.01123 4.62476 5.33179 4.62476 5.52506 4.81803L11.1819 10.4749C11.3752 10.6682 11.3752 10.9887 11.1819 11.182C10.9886 11.3753 10.6681 11.3753 10.4748 11.182Z" fill="black"/>
<path d="M4.81808 11.182C4.62481 10.9887 4.62481 10.6682 4.81808 10.4749L10.4749 4.81803C10.6682 4.62476 10.9888 4.62476 11.182 4.81803C11.3753 5.01131 11.3753 5.33186 11.182 5.52514L5.52519 11.182C5.33191 11.3753 5.01136 11.3753 4.81808 11.182Z" fill="black"/>
</svg>
