<svg width="18" height="19" viewBox="0 0 18 19" fill="none" xmlns="http://www.w3.org/2000/svg">
<g clip-path="url(#clip0_380_1682)">
<path d="M0 14.7488V16.25C0 17.491 3.02344 18.5 6.75 18.5C10.4766 18.5 13.5 17.491 13.5 16.25V14.7488C12.0481 15.7719 9.39375 16.25 6.75 16.25C4.10625 16.25 1.45195 15.7719 0 14.7488ZM11.25 5C14.9766 5 18 3.99102 18 2.75C18 1.50898 14.9766 0.5 11.25 0.5C7.52344 0.5 4.5 1.50898 4.5 2.75C4.5 3.99102 7.52344 5 11.25 5ZM0 11.0609V12.875C0 14.116 3.02344 15.125 6.75 15.125C10.4766 15.125 13.5 14.116 13.5 12.875V11.0609C12.0481 12.2562 9.39024 12.875 6.75 12.875C4.10976 12.875 1.45195 12.2562 0 11.0609ZM14.625 11.4477C16.6394 11.0574 18 10.3332 18 9.5V7.99883C17.1844 8.57539 15.9856 8.96915 14.625 9.21172V11.4477ZM6.75 6.125C3.02344 6.125 0 7.38359 0 8.9375C0 10.4914 3.02344 11.75 6.75 11.75C10.4766 11.75 13.5 10.4914 13.5 8.9375C13.5 7.38359 10.4766 6.125 6.75 6.125ZM14.4597 8.1043C16.5691 7.72461 18 6.9793 18 6.125V4.62383C16.7519 5.50625 14.6074 5.98085 12.3504 6.09336C13.3875 6.59609 14.1504 7.27109 14.4597 8.1043Z" fill="#9700FF"/>
</g>
<defs>
<clipPath id="clip0_380_1682">
<rect width="18" height="18" fill="white" transform="translate(0 0.5)"/>
</clipPath>
</defs>
</svg>
