<svg width="16" height="16" viewBox="0 0 16 16" fill="none" xmlns="http://www.w3.org/2000/svg">
<path d="M14.4874 1.51305C13.804 0.829634 12.696 0.829634 12.0126 1.51305L11.2411 2.28448L13.716 4.75936L14.4874 3.98793C15.1709 3.30451 15.1709 2.19647 14.4874 1.51305Z" fill="white"/>
<path d="M13.0089 5.46646L10.534 2.99159L4.93346 8.59215C4.52227 9.00334 4.22001 9.51051 4.054 10.0678L3.52081 11.8577C3.4684 12.0337 3.51663 12.2242 3.64645 12.354C3.77627 12.4839 3.96679 12.5321 4.14275 12.4797L5.93267 11.9465C6.48999 11.7805 6.99715 11.4782 7.40834 11.067L13.0089 5.46646Z" fill="white"/>
<path d="M3.5 3.50048C2.39543 3.50048 1.5 4.39591 1.5 5.50048V12.5005C1.5 13.6051 2.39543 14.5005 3.5 14.5005H10.5C11.6046 14.5005 12.5 13.6051 12.5 12.5005V9.00048C12.5 8.72434 12.2761 8.50048 12 8.50048C11.7239 8.50048 11.5 8.72434 11.5 9.00048V12.5005C11.5 13.0528 11.0523 13.5005 10.5 13.5005H3.5C2.94772 13.5005 2.5 13.0528 2.5 12.5005V5.50048C2.5 4.9482 2.94772 4.50048 3.5 4.50048H7C7.27614 4.50048 7.5 4.27663 7.5 4.00048C7.5 3.72434 7.27614 3.50048 7 3.50048H3.5Z" fill="white"/>
</svg>
