<svg width="16" height="18" viewBox="0 0 16 18" fill="none" xmlns="http://www.w3.org/2000/svg">
<g clip-path="url(#clip0_127_125)">
<path d="M15.9915 9.15318C15.9915 8.48238 15.9371 7.99286 15.8193 7.48523H8.1593V10.5129H12.6555C12.5649 11.2653 12.0754 12.3985 10.9876 13.1599L10.9723 13.2613L13.3943 15.1375L13.5621 15.1543C15.1031 13.731 15.9915 11.637 15.9915 9.15318Z" fill="#4285F4"/>
<path d="M8.15928 17.1305C10.3621 17.1305 12.2113 16.4052 13.562 15.1543L10.9876 13.1599C10.2986 13.6404 9.37397 13.9758 8.15928 13.9758C6.00182 13.9758 4.17069 12.5526 3.51795 10.5855L3.42227 10.5936L0.903906 12.5426L0.870972 12.6342C2.21258 15.2993 4.96836 17.1305 8.15928 17.1305Z" fill="#34A853"/>
<path d="M3.51793 10.5855C3.3457 10.0779 3.24602 9.53396 3.24602 8.97195C3.24602 8.40988 3.3457 7.866 3.50887 7.35837L3.50431 7.25025L0.954384 5.26996L0.870955 5.30964C0.318012 6.41559 0.000732422 7.65752 0.000732422 8.97195C0.000732422 10.2864 0.318012 11.5282 0.870955 12.6342L3.51793 10.5855Z" fill="#FBBC05"/>
<path d="M8.15928 3.96797C9.69125 3.96797 10.7246 4.62971 11.3139 5.18272L13.6164 2.93457C12.2023 1.62015 10.3621 0.813354 8.15928 0.813354C4.96836 0.813354 2.21258 2.64448 0.870972 5.30958L3.50889 7.3583C4.17069 5.39119 6.00182 3.96797 8.15928 3.96797Z" fill="#EB4335"/>
</g>
<defs>
<clipPath id="clip0_127_125">
<rect width="16" height="16.3733" fill="white" transform="translate(0 0.813354)"/>
</clipPath>
</defs>
</svg>
