<svg width="14" height="14" viewBox="0 0 14 14" fill="none" xmlns="http://www.w3.org/2000/svg">
<path d="M12.6816 11.9643L12.18 11.4626C12.4425 11.066 12.5941 10.5935 12.5941 10.086C12.5941 8.70347 11.4741 7.57764 10.0858 7.57764C8.69748 7.57764 7.58331 8.70347 7.58331 10.0918C7.58331 11.4801 8.70331 12.6001 10.0916 12.6001C10.5991 12.6001 11.0716 12.4485 11.4683 12.186L11.97 12.6876C12.0691 12.7868 12.1975 12.8393 12.3316 12.8393C12.4658 12.8393 12.5941 12.7868 12.6933 12.6876C12.8858 12.4835 12.8858 12.1626 12.6816 11.9643Z" fill="url(#paint0_linear_397_2603)"/>
<path d="M12.8334 5.09238C12.8334 5.78654 12.7225 6.42821 12.53 7.02321C12.495 7.14571 12.3492 7.18071 12.2442 7.10488C11.6084 6.63238 10.8325 6.38154 10.0334 6.38154C8.00919 6.38154 6.35835 8.03238 6.35835 10.0565C6.35835 10.6865 6.52169 11.3049 6.83085 11.8532C6.92419 12.0165 6.81335 12.2265 6.63835 12.1624C5.23252 11.684 2.39169 9.93988 1.47002 7.02321C1.27752 6.42821 1.16669 5.78654 1.16669 5.09238C1.16669 3.28988 2.61919 1.83154 4.41002 1.83154C5.46585 1.83154 6.41085 2.34488 7.00002 3.13238C7.58919 2.34488 8.53419 1.83154 9.59002 1.83154C11.3809 1.83154 12.8334 3.28988 12.8334 5.09238Z" fill="url(#paint1_linear_397_2603)"/>
<defs>
<linearGradient id="paint0_linear_397_2603" x1="7.58331" y1="10.2085" x2="12.8363" y2="10.2085" gradientUnits="userSpaceOnUse">
<stop stop-color="#9700FF"/>
<stop offset="0.658654" stop-color="#B95AFB"/>
</linearGradient>
<linearGradient id="paint1_linear_397_2603" x1="1.16669" y1="7.00288" x2="12.8334" y2="7.00288" gradientUnits="userSpaceOnUse">
<stop stop-color="#9700FF"/>
<stop offset="0.658654" stop-color="#B95AFB"/>
</linearGradient>
</defs>
</svg>
