<svg width="8" height="8" viewBox="0 0 8 8" fill="none" xmlns="http://www.w3.org/2000/svg">
<g clip-path="url(#clip0_371_1862)">
<path d="M6.87334 2.81683C6.52334 1.27683 5.18 0.583496 4 0.583496C4 0.583496 4 0.583496 3.99667 0.583496C2.82 0.583496 1.47333 1.2735 1.12333 2.8135C0.733335 4.5335 1.78667 5.99016 2.74 6.90683C3.09333 7.24683 3.54667 7.41683 4 7.41683C4.45333 7.41683 4.90667 7.24683 5.25667 6.90683C6.21 5.99016 7.26334 4.53683 6.87334 2.81683ZM4 4.48683C3.42 4.48683 2.95 4.01683 2.95 3.43683C2.95 2.85683 3.42 2.38683 4 2.38683C4.58 2.38683 5.05 2.85683 5.05 3.43683C5.05 4.01683 4.58 4.48683 4 4.48683Z" fill="white"/>
</g>
<defs>
<clipPath id="clip0_371_1862">
<rect width="8" height="8" fill="white"/>
</clipPath>
</defs>
</svg>
