<svg width="10" height="10" viewBox="0 0 10 10" fill="none" xmlns="http://www.w3.org/2000/svg">
<path fill-rule="evenodd" clip-rule="evenodd" d="M4.845 9.4665L4.8465 9.467C4.945 9.51 5 9.5 5 9.5C5 9.5 5.055 9.51 5.154 9.467L5.155 9.4665L5.158 9.465L5.167 9.461C5.21446 9.43895 5.26131 9.41561 5.3075 9.391C5.4005 9.343 5.5305 9.271 5.686 9.1745C5.996 8.9825 6.4085 8.6915 6.823 8.292C7.651 7.494 8.5 6.2465 8.5 4.5C8.5 4.04037 8.40947 3.58525 8.23358 3.16061C8.05769 2.73597 7.79988 2.35013 7.47487 2.02513C7.14987 1.70012 6.76403 1.44231 6.33939 1.26642C5.91475 1.09053 5.45963 1 5 1C4.54037 1 4.08525 1.09053 3.66061 1.26642C3.23597 1.44231 2.85013 1.70012 2.52513 2.02513C2.20012 2.35013 1.94231 2.73597 1.76642 3.16061C1.59053 3.58525 1.5 4.04037 1.5 4.5C1.5 6.246 2.349 7.494 3.1775 8.292C3.52438 8.62516 3.9053 8.92095 4.314 9.1745C4.4723 9.2728 4.63514 9.36356 4.802 9.4465L4.833 9.461L4.842 9.465L4.845 9.4665ZM5 5.625C5.29837 5.625 5.58452 5.50647 5.7955 5.2955C6.00647 5.08452 6.125 4.79837 6.125 4.5C6.125 4.20163 6.00647 3.91548 5.7955 3.7045C5.58452 3.49353 5.29837 3.375 5 3.375C4.70163 3.375 4.41548 3.49353 4.20451 3.7045C3.99353 3.91548 3.875 4.20163 3.875 4.5C3.875 4.79837 3.99353 5.08452 4.20451 5.2955C4.41548 5.50647 4.70163 5.625 5 5.625Z" fill="url(#paint0_linear_679_3903)"/>
<defs>
<linearGradient id="paint0_linear_679_3903" x1="1.5" y1="5.2505" x2="8.5" y2="5.2505" gradientUnits="userSpaceOnUse">
<stop stop-color="#9700FF"/>
<stop offset="0.658654" stop-color="#B95AFB"/>
</linearGradient>
</defs>
</svg>
