<svg width="30" height="18" viewBox="0 0 30 18" fill="none" xmlns="http://www.w3.org/2000/svg">
<path d="M5.2755 0.618977C5.3315 0.618548 5.38751 0.618118 5.44521 0.617676C5.7207 0.618666 5.95588 0.630563 6.21838 0.722384C6.33046 0.74838 6.44257 0.774224 6.55471 0.79994C7.9901 1.15065 9.27978 1.97579 10.3119 3.02032C10.3466 3.05344 10.3813 3.08655 10.4171 3.12067C10.7388 3.43082 11.0118 3.76568 11.2777 4.12333C11.2999 4.15313 11.3221 4.18294 11.345 4.21365C11.652 4.62978 11.928 5.059 12.1908 5.50425C12.3244 5.73037 12.4636 5.94753 12.6179 6.16023C12.7338 6.32689 12.8403 6.49899 12.9479 6.67116C13.7524 7.95336 14.5956 9.23822 15.6337 10.3461C15.6932 10.4197 15.6932 10.4197 15.6932 10.5116C15.7336 10.5287 15.7336 10.5287 15.7748 10.5461C15.8932 10.6125 15.956 10.6831 16.0437 10.7868C16.35 11.1354 16.681 11.4595 17.0095 11.787C17.1219 11.899 17.2341 12.0113 17.3462 12.1236C17.4185 12.1959 17.4909 12.2682 17.5633 12.3404C17.6128 12.39 17.6128 12.39 17.6634 12.4407C17.8477 12.624 18.0362 12.7995 18.2338 12.9685C18.3825 13.0984 18.5185 13.2408 18.6562 13.3822C18.8106 13.5389 18.9721 13.6842 19.1385 13.828C19.303 13.9725 19.4611 14.1238 19.6199 14.2744C19.9518 14.5878 19.9518 14.5878 20.2868 14.8978C20.3379 14.9446 20.3379 14.9446 20.39 14.9924C20.478 15.0708 20.478 15.0708 20.6146 15.1074C20.643 15.0782 20.643 15.0782 20.672 15.0484C20.844 14.8739 21.0211 14.7091 21.2064 14.5489C21.4635 14.3264 21.7148 14.0981 21.9611 13.8637C21.9959 13.8306 22.0308 13.7976 22.0666 13.7635C22.1364 13.6971 22.206 13.6305 22.2755 13.5636C22.3078 13.5328 22.3401 13.5021 22.3735 13.4704C22.4023 13.4427 22.4312 13.415 22.4609 13.3864C22.5467 13.3147 22.6285 13.2686 22.7303 13.2231C22.7303 13.1928 22.7303 13.1625 22.7303 13.1312C22.7946 13.068 22.7946 13.068 22.8855 12.9934C23.0904 12.8204 23.2756 12.6321 23.4615 12.4392C23.5582 12.3499 23.5582 12.3499 23.6502 12.3499C23.6606 12.3234 23.671 12.2968 23.6818 12.2695C23.758 12.139 23.8537 12.0764 23.9721 11.9823C24.0448 11.9027 24.1138 11.821 24.1823 11.7379C24.2473 11.6615 24.311 11.5894 24.3861 11.5227C24.4164 11.5227 24.4468 11.5227 24.4781 11.5227C24.4895 11.4942 24.5008 11.4658 24.5126 11.4365C24.581 11.3203 24.6361 11.3058 24.754 11.2469C24.7708 11.2089 24.7708 11.2089 24.788 11.1701C24.8742 11.0112 25.0012 10.9005 25.1306 10.7758C25.3226 10.5876 25.5089 10.3987 25.6831 10.1936C25.7697 10.0935 25.8593 9.99647 25.9495 9.89953C27.0231 8.74377 28.0524 7.33735 28.0295 5.687C27.9797 4.98638 27.8049 4.3221 27.3757 3.75566C27.3425 3.70921 27.3093 3.66276 27.2751 3.61491C26.7821 3.04654 26.0171 2.77001 25.2916 2.66414C23.7986 2.563 22.5719 3.19805 21.4425 4.12333C21.3568 4.20287 21.2752 4.28422 21.1949 4.3691C21.1101 4.45561 21.0201 4.53316 20.9279 4.61164C20.7902 4.72953 20.6809 4.85404 20.5686 4.99654C20.5382 4.99654 20.5078 4.99654 20.4766 4.99654C20.4614 5.04204 20.4462 5.08754 20.4306 5.13442C20.3415 5.23495 20.3415 5.23495 20.2466 5.31825C20.2162 5.31825 20.1859 5.31825 20.1546 5.31825C20.1393 5.28633 20.1241 5.25442 20.1083 5.22153C20.0376 5.07374 19.9667 4.92599 19.8959 4.77824C19.8719 4.72806 19.8479 4.67788 19.8231 4.62618C19.7006 4.37066 19.5772 4.11551 19.4521 3.86122C19.4302 3.81659 19.4083 3.77197 19.3858 3.72599C19.3309 3.61328 19.3309 3.61328 19.2347 3.52586C19.2448 3.41278 19.2672 3.35657 19.3447 3.27309C19.3729 3.25034 19.4011 3.22759 19.4302 3.20415C19.5803 3.07924 19.7249 2.95068 19.8672 2.81718C21.354 1.42476 23.1697 0.566229 25.2266 0.624408C26.5659 0.68915 27.839 1.29326 28.7568 2.26577C29.2528 2.8182 29.6176 3.55114 29.8134 4.2612C29.8271 4.30765 29.8409 4.3541 29.8551 4.40195C30.2647 6.03922 29.7583 7.64998 28.9338 9.05527C28.5462 9.69748 28.0774 10.2873 27.5812 10.8483C27.4885 10.9539 27.3978 11.0612 27.3069 11.1684C26.9276 11.6148 26.535 12.0479 26.1163 12.4576C26.0324 12.5408 26.0324 12.5408 25.9326 12.6716C25.908 12.702 25.8833 12.7323 25.8579 12.7636C25.8275 12.7636 25.7972 12.7636 25.7659 12.7636C25.7536 12.791 25.7412 12.8185 25.7285 12.8469C25.674 12.9473 25.6235 13.0123 25.5359 13.0853C25.5056 13.0853 25.4752 13.0853 25.4439 13.0853C25.4439 13.1156 25.4439 13.1459 25.4439 13.1772C25.269 13.3694 25.0695 13.5365 24.8755 13.7091C24.7187 13.8531 24.5707 14.0046 24.4235 14.1583C24.3401 14.2342 24.3401 14.2342 24.2481 14.2342C24.2329 14.2797 24.2177 14.3252 24.2021 14.3721C24.1381 14.4349 24.1381 14.4349 24.0526 14.5042C23.8703 14.6582 23.7026 14.8229 23.5352 14.9926C23.3443 15.1855 23.1515 15.3717 22.9441 15.5471C22.8707 15.6109 22.8033 15.6778 22.736 15.748C22.6383 15.8428 22.6383 15.8428 22.5463 15.8428C22.5463 15.8731 22.5463 15.9035 22.5463 15.9347C22.4868 15.9947 22.4868 15.9947 22.3997 16.0668C22.251 16.1929 22.1066 16.3221 21.9643 16.4552C20.9774 17.3773 20.9774 17.3773 20.5053 17.3623C19.9632 17.2889 19.5962 16.8254 19.2182 16.4654C19.1336 16.3857 19.0471 16.3089 18.9588 16.2334C18.7505 16.0543 18.5515 15.8654 18.3509 15.6778C17.8489 15.2078 17.8489 15.2078 17.3346 14.7513C17.1913 14.6273 17.0582 14.4961 16.9253 14.3612C16.7442 14.183 16.5508 14.0183 16.3515 13.8608C16.1907 13.7305 16.0502 13.5804 15.905 13.4332C15.698 13.2241 15.4891 13.0216 15.2645 12.8314C15.1872 12.7636 15.1872 12.7636 15.0838 12.6487C15.0103 12.5695 15.0103 12.5695 14.9195 12.5853C14.7817 12.6408 14.7077 12.7274 14.6066 12.8354C14.5412 12.905 14.4744 12.9734 14.4053 13.0393C14.375 13.0393 14.3446 13.0393 14.3134 13.0393C14.3134 13.0696 14.3134 13.1 14.3134 13.1312C14.2461 13.1982 14.2461 13.1982 14.1529 13.2757C13.952 13.4465 13.7601 13.6249 13.5688 13.8062C13.3333 14.0287 13.0973 14.2505 12.8588 14.4698C12.6452 14.6661 12.4326 14.8635 12.2206 15.0615C11.794 15.4599 11.3651 15.8558 10.9341 16.2493C10.8124 16.3604 10.6915 16.4721 10.5713 16.5848C9.70733 17.3928 9.70733 17.3928 9.26459 17.3795C8.80447 17.2893 8.31542 16.8296 8.01215 16.4862C8.01215 16.4559 8.01215 16.4255 8.01215 16.3943C7.98542 16.3824 7.95869 16.3705 7.93114 16.3582C7.82032 16.2981 7.74327 16.2314 7.65246 16.1442C7.62027 16.1136 7.58807 16.083 7.5549 16.0515C7.50519 16.0036 7.50519 16.0036 7.45447 15.9548C7.38833 15.8915 7.32209 15.8282 7.25576 15.7651C7.22658 15.737 7.19741 15.7089 7.16735 15.68C7.0945 15.6091 7.0945 15.6091 7.00028 15.567C7.00028 15.5367 7.00028 15.5064 7.00028 15.4751C6.97431 15.4643 6.94834 15.4534 6.92159 15.4423C6.79235 15.3698 6.70609 15.2802 6.60358 15.1735C6.47085 15.0298 6.47085 15.0298 6.31037 14.9236C6.31037 14.8933 6.31037 14.8629 6.31037 14.8317C6.28422 14.8206 6.25808 14.8095 6.23115 14.798C6.10593 14.7284 6.02232 14.6454 5.92211 14.543C5.8839 14.5043 5.84569 14.4656 5.80632 14.4258C5.7668 14.3853 5.72728 14.3449 5.68657 14.3032C5.60804 14.2231 5.52941 14.1432 5.45067 14.0633C5.41595 14.0278 5.38124 13.9923 5.34547 13.9557C5.25042 13.8593 5.25042 13.8593 5.11452 13.7746C5.11452 13.7443 5.11452 13.714 5.11452 13.6827C5.08719 13.6704 5.05986 13.658 5.0317 13.6452C4.93048 13.5908 4.86468 13.5364 4.78388 13.4554C4.75639 13.4281 4.72889 13.4008 4.70057 13.3726C4.67134 13.3431 4.64211 13.3135 4.612 13.2831C4.58137 13.2525 4.55075 13.2219 4.5192 13.1903C4.45441 13.1254 4.38974 13.0605 4.32517 12.9954C4.22733 12.8968 4.12913 12.7985 4.03087 12.7004C3.96776 12.6371 3.90466 12.5738 3.84159 12.5104C3.81264 12.4814 3.7837 12.4525 3.75387 12.4226C3.20739 11.8708 3.20739 11.8708 3.09077 11.6146C3.06042 11.6146 3.03006 11.6146 2.99879 11.6146C2.93716 11.5552 2.93716 11.5552 2.86368 11.4681C2.83486 11.4342 2.80605 11.4002 2.77636 11.3652C2.72709 11.3067 2.72709 11.3067 2.67683 11.2469C2.64019 11.2046 2.60355 11.1622 2.56579 11.1186C1.71976 10.1381 0.919313 9.09057 0.420238 7.88601C0.383789 7.79188 0.383789 7.79188 0.28513 7.75406C0.269319 7.67333 0.269319 7.67333 0.262133 7.56969C0.242503 7.35208 0.198492 7.14741 0.147147 6.93542C0.0721174 6.61028 0.0200183 6.29607 0.00916456 5.96167C0.00679299 5.91404 0.00442141 5.86641 0.00197797 5.81733C-0.0276352 4.75702 0.277843 3.81824 0.745071 2.88244C0.76191 2.84678 0.778748 2.81111 0.796096 2.77437C0.846886 2.68043 0.916538 2.6156 0.993368 2.54242C1.08683 2.44903 1.17253 2.34984 1.25963 2.25051C2.32103 1.07286 3.72097 0.627353 5.2755 0.618977ZM3.55072 2.97436C3.51182 2.99361 3.47293 3.01287 3.43286 3.03271C2.85611 3.34517 2.49756 3.82424 2.21689 4.39908C2.19702 4.43954 2.17716 4.48001 2.1567 4.52169C1.80124 5.36087 1.88935 6.42946 2.21188 7.26245C2.43939 7.8085 2.73805 8.292 3.09077 8.76515C3.11858 8.80307 3.14639 8.84098 3.17504 8.88005C3.55118 9.37753 3.97601 9.84001 4.40006 10.2967C4.45335 10.3549 4.50608 10.4136 4.55854 10.4725C4.80567 10.7501 5.06136 11.0167 5.32455 11.2791C5.36494 11.3195 5.40534 11.3599 5.44696 11.4015C5.53167 11.4862 5.61643 11.5708 5.70125 11.6554C5.83029 11.784 5.95908 11.913 6.08785 12.042C6.17069 12.1247 6.25355 12.2074 6.33642 12.2901C6.39349 12.3473 6.39349 12.3473 6.45172 12.4056C6.64859 12.6016 6.84851 12.7907 7.05981 12.971C7.17745 13.0734 7.2851 13.1834 7.3941 13.295C7.52494 13.4277 7.65521 13.5586 7.79943 13.677C7.99292 13.8368 8.1651 14.0183 8.34139 14.1964C8.50527 14.3613 8.67285 14.5182 8.85065 14.6681C8.96587 14.7696 9.07 14.8807 9.17404 14.9935C9.27015 15.0752 9.36661 15.1089 9.48396 15.1534C9.5166 15.1204 9.5166 15.1204 9.5499 15.0868C9.65045 14.9854 9.75118 14.8841 9.85192 14.7829C9.88613 14.7483 9.92034 14.7137 9.95558 14.6781C10.1461 14.4869 10.3402 14.3036 10.5449 14.1277C10.6933 13.9987 10.8357 13.8635 10.9788 13.7287C11.1931 13.5273 11.4083 13.329 11.6355 13.142C11.7025 13.0877 11.7025 13.0877 11.6917 12.9934C11.7304 12.9774 11.7304 12.9774 11.7698 12.961C11.9027 12.8862 11.9914 12.7929 12.097 12.6831C12.2289 12.5483 12.3592 12.4177 12.5052 12.2982C12.6562 12.1732 12.7785 12.0304 12.9051 11.8814C12.997 11.779 13.1021 11.7004 13.2095 11.6146C13.374 11.4392 13.5268 11.2566 13.6694 11.0631C13.4469 10.7475 13.2229 10.4341 12.9853 10.1296C12.7098 9.77575 12.4533 9.40909 12.1976 9.0409C12.1745 9.00763 12.1513 8.97436 12.1274 8.94008C11.7423 8.386 11.3718 7.82275 11.0037 7.25731C10.0536 5.78545 10.0536 5.78545 8.93203 4.44504C8.89462 4.40523 8.85721 4.36541 8.81867 4.3244C7.95888 3.43325 6.80334 2.73591 5.55146 2.64403C5.48334 2.63839 5.48334 2.63839 5.41384 2.63263C4.77435 2.58055 4.12393 2.67689 3.55072 2.97436Z" fill="#9700FF"/>
<path d="M15.5236 1.81971C15.557 1.82379 15.5904 1.82787 15.6249 1.83208C15.9097 1.8677 16.1927 1.91222 16.4751 1.96333C16.4751 1.99366 16.4751 2.024 16.4751 2.05525C16.4996 2.06254 16.5242 2.06982 16.5495 2.07733C17.001 2.21863 17.3685 2.42401 17.7424 2.71375C17.8464 2.78475 17.9161 2.81714 18.0389 2.83655C18.0417 2.86214 18.0446 2.88773 18.0475 2.9141C18.1007 3.06548 18.1991 3.13965 18.3148 3.25017C18.968 3.90279 19.2483 4.82958 19.2492 5.73337C19.2371 6.40823 19.0268 7.01764 18.7288 7.61625C18.7141 7.64618 18.6993 7.67611 18.6842 7.70695C18.4871 8.10345 18.2624 8.45882 17.9929 8.81117C17.9343 8.89345 17.8759 8.97579 17.8175 9.0582C17.6186 9.33195 17.4008 9.58815 17.1791 9.84356C17.1372 9.89278 17.0962 9.94274 17.0558 9.99324C17.0021 10.0603 16.9458 10.1253 16.889 10.1899C16.8587 10.1899 16.8283 10.1899 16.797 10.1899C16.7866 10.2184 16.7762 10.2468 16.7654 10.2761C16.6876 10.402 16.6134 10.422 16.4751 10.4657C16.4641 10.4325 16.4531 10.3992 16.4418 10.365C16.3741 10.216 16.2925 10.1267 16.179 10.009C15.9052 9.71657 15.6612 9.40436 15.4172 9.08693C15.5787 8.89581 15.7441 8.71008 15.9145 8.52681C16.6273 7.74303 17.2374 6.81773 17.2207 5.71991C17.1801 5.19364 16.9867 4.75034 16.6044 4.38478C16.3004 4.13167 15.9519 3.96598 15.5552 3.93955C15.5552 3.90922 15.5552 3.87889 15.5552 3.84764C14.9445 3.82896 14.3866 3.85575 13.8074 4.07743C13.7847 4.12293 13.7847 4.12293 13.7614 4.16935C13.7203 4.18967 13.6791 4.20999 13.6367 4.23093C13.4788 4.3106 13.361 4.40225 13.2267 4.51691C13.0879 4.63522 12.9635 4.73987 12.7955 4.81277C12.7304 4.73331 12.6652 4.65384 12.6001 4.57436C12.5638 4.5301 12.5275 4.48585 12.4901 4.44025C12.2922 4.19768 12.1045 3.95091 11.9217 3.69684C11.8064 3.5403 11.6913 3.38771 11.5537 3.25017C12.6479 2.22425 14.0058 1.62674 15.5236 1.81971Z" fill="#B95AFB"/>
</svg>
