<svg width="56" height="56" viewBox="0 0 56 56" fill="none" xmlns="http://www.w3.org/2000/svg">
<path d="M43.8667 23.1226C41.23 23.1226 38.8733 24.4059 37.4033 26.3659C35.9333 24.4059 33.5767 23.1226 30.94 23.1226C26.4833 23.1226 22.8667 26.7626 22.8667 31.2426C22.8667 32.9692 23.1467 34.5792 23.6133 36.0492C25.9 43.3059 32.9933 47.6692 36.4933 48.8592C36.9833 49.0226 37.8 49.0226 38.29 48.8592C41.79 47.6692 48.8833 43.3292 51.17 36.0492C51.66 34.5559 51.9167 32.9692 51.9167 31.2426C51.94 26.7626 48.3233 23.1226 43.8667 23.1226Z" fill="url(#paint0_linear_397_2563)"/>
<path d="M48.4166 19.461C48.4166 19.9977 47.88 20.3477 47.3666 20.2077C44.2166 19.391 40.7633 20.0677 38.15 21.9344C37.6366 22.3077 36.9366 22.3077 36.4466 21.9344C34.6033 20.581 32.3633 19.8344 30.0066 19.8344C23.9866 19.8344 19.0866 24.7577 19.0866 30.8244C19.0866 37.4044 22.2366 42.3277 25.41 45.6177C25.5733 45.781 25.4333 46.061 25.2233 45.9677C18.8533 43.7977 4.66664 34.791 4.66664 19.461C4.66664 12.6944 10.1033 7.23438 16.8233 7.23438C20.8133 7.23438 24.3366 9.14771 26.5533 12.111C28.7933 9.14771 32.3166 7.23438 36.2833 7.23438C42.98 7.23438 48.4166 12.6944 48.4166 19.461Z" fill="url(#paint1_linear_397_2563)"/>
<defs>
<linearGradient id="paint0_linear_397_2563" x1="22.8667" y1="36.0521" x2="51.9168" y2="36.0521" gradientUnits="userSpaceOnUse">
<stop stop-color="#9700FF"/>
<stop offset="0.658654" stop-color="#B95AFB"/>
</linearGradient>
<linearGradient id="paint1_linear_397_2563" x1="4.66664" y1="26.6103" x2="48.4166" y2="26.6103" gradientUnits="userSpaceOnUse">
<stop stop-color="#9700FF"/>
<stop offset="0.658654" stop-color="#B95AFB"/>
</linearGradient>
</defs>
</svg>
