<svg width="18" height="18" viewBox="0 0 18 18" fill="none" xmlns="http://www.w3.org/2000/svg">
<path d="M8.19001 14.8124C7.97251 14.8124 7.7625 14.7824 7.59 14.7149C5.025 13.8374 0.9375 10.7024 0.9375 6.06744C0.9375 3.68994 2.85749 1.76245 5.21999 1.76245C6.35249 1.76245 7.40999 2.19744 8.19749 2.96994C8.99249 2.19744 10.0425 1.76245 11.175 1.76245C13.5375 1.76245 15.4575 3.68994 15.4575 6.06744C15.4575 6.38994 15.435 6.71995 15.39 7.05745C15.3675 7.22995 15.2625 7.38745 15.1125 7.47745C14.9625 7.56745 14.775 7.57495 14.61 7.50745C13.6875 7.10995 12.54 7.40996 11.94 8.21246C11.835 8.35496 11.6325 8.42995 11.49 8.43745C11.31 8.43745 11.145 8.35496 11.04 8.21246C10.6125 7.64246 9.96 7.31995 9.255 7.31995C8.0325 7.31995 7.035 8.32495 7.035 9.56245C7.035 11.5124 8.1525 12.8999 9.0975 13.7324C9.2325 13.8524 9.3 14.0249 9.285 14.2049C9.27 14.3849 9.17249 14.5424 9.01499 14.6399C8.93249 14.6849 8.86499 14.7149 8.82749 14.7224C8.63249 14.7824 8.41501 14.8124 8.19001 14.8124ZM5.21999 2.88745C3.47999 2.88745 2.0625 4.31244 2.0625 6.06744C2.0625 9.98994 5.325 12.4049 7.2 13.3349C6.4875 12.3824 5.9025 11.1224 5.9025 9.55494C5.9025 7.69494 7.40249 6.18745 9.24749 6.18745C10.0875 6.18745 10.875 6.49496 11.4825 7.04246C12.24 6.36746 13.32 6.05994 14.325 6.24744C14.325 6.18744 14.325 6.12745 14.325 6.07495C14.325 4.31995 12.9075 2.89494 11.1675 2.89494C10.17 2.89494 9.24749 3.35994 8.63999 4.16244C8.53499 4.30494 8.37001 4.38745 8.19001 4.38745C8.01001 4.38745 7.845 4.30494 7.74 4.16244C7.1475 3.35244 6.22499 2.88745 5.21999 2.88745Z" fill="url(#paint0_linear_371_1860)"/>
<path d="M11.4901 16.2375C11.3176 16.2375 11.1376 16.215 10.9951 16.1625C10.3501 15.945 9.3076 15.4125 8.3551 14.565C7.2451 13.5825 5.9176 11.9175 5.9176 9.55499C5.9176 7.69499 7.4176 6.1875 9.2626 6.1875C10.1026 6.1875 10.8901 6.49501 11.4976 7.04251C12.4426 6.19501 13.8826 5.955 15.0676 6.4725C16.2826 7.0125 17.0701 8.2275 17.0701 9.5625C17.0701 13.1175 13.9501 15.5025 11.9851 16.17C11.8351 16.215 11.6626 16.2375 11.4901 16.2375ZM9.25509 7.3125C8.03259 7.3125 7.0351 8.31749 7.0351 9.55499C7.0351 11.505 8.1526 12.8925 9.09759 13.725C9.93009 14.46 10.8076 14.9175 11.3551 15.0975C11.4151 15.12 11.5576 15.12 11.6101 15.0975C12.7351 14.715 15.9376 12.8775 15.9376 9.55499C15.9376 8.66249 15.4126 7.8525 14.6101 7.5C13.7026 7.1025 12.5401 7.4025 11.9401 8.205C11.8351 8.3475 11.6326 8.42249 11.4901 8.42999C11.3101 8.42999 11.1451 8.3475 11.0401 8.205C10.6126 7.635 9.96009 7.3125 9.25509 7.3125Z" fill="url(#paint1_linear_371_1860)"/>
<defs>
<linearGradient id="paint0_linear_371_1860" x1="0.9375" y1="8.28745" x2="15.4575" y2="8.28745" gradientUnits="userSpaceOnUse">
<stop stop-color="#9700FF"/>
<stop offset="0.658654" stop-color="#B95AFB"/>
</linearGradient>
<linearGradient id="paint1_linear_371_1860" x1="5.9176" y1="11.2125" x2="17.0701" y2="11.2125" gradientUnits="userSpaceOnUse">
<stop stop-color="#9700FF"/>
<stop offset="0.658654" stop-color="#B95AFB"/>
</linearGradient>
</defs>
</svg>
