<svg width="64" height="64" viewBox="0 0 64 64" fill="none" xmlns="http://www.w3.org/2000/svg">
<path fill-rule="evenodd" clip-rule="evenodd" d="M6.73778 20.6311C4.56957 21.7152 3.19995 23.9313 3.19995 26.3554V51.2C3.19995 54.7346 6.06533 57.6 9.59995 57.6H54.4C57.9346 57.6 60.8 54.7346 60.8 51.2V26.3554C60.8 23.9313 59.4303 21.7152 57.2621 20.6311L34.8621 9.43108C33.0603 8.5302 30.9396 8.53019 29.1378 9.43108L6.73778 20.6311ZM11.4733 33.4534C10.2877 32.8606 8.8461 33.3411 8.25333 34.5267C7.66055 35.7122 8.14109 37.1539 9.32664 37.7466L28.0645 47.1155C30.5419 48.3543 33.458 48.3543 35.9354 47.1155L54.6633 37.7516C55.8488 37.1589 56.3293 35.7172 55.7366 34.5317C55.1438 33.3461 53.7022 32.8656 52.5166 33.4584L33.7888 42.8223C32.6627 43.3853 31.3372 43.3853 30.2111 42.8223L11.4733 33.4534Z" fill="white"/>
</svg>
