<svg width="18" height="18" viewBox="0 0 18 18" fill="none" xmlns="http://www.w3.org/2000/svg">
<path d="M8.78399 8.85577L7.76876 9.87097C7.20716 10.4326 7.20716 11.347 7.76876 11.9086C8.33036 12.4702 9.24478 12.4702 9.80638 11.9086L11.4048 10.3102C12.528 9.18698 12.528 7.36538 11.4048 6.23498C10.2816 5.11178 8.45997 5.11178 7.32957 6.23498L5.58719 7.97737C4.62239 8.94217 4.62239 10.5046 5.58719 11.4694" stroke="white" stroke-width="1.08" stroke-linecap="round" stroke-linejoin="round"/>
<path d="M8.64 16.1998C12.6165 16.1998 15.84 12.9763 15.84 8.9998C15.84 5.02335 12.6165 1.7998 8.64 1.7998C4.66355 1.7998 1.44 5.02335 1.44 8.9998C1.44 12.9763 4.66355 16.1998 8.64 16.1998Z" stroke="white" stroke-width="1.08" stroke-linecap="round" stroke-linejoin="round"/>
</svg>
