<svg width="20" height="20" viewBox="0 0 20 20" fill="none" xmlns="http://www.w3.org/2000/svg">
<path d="M14.1667 1.66675H5.83334C3.53334 1.66675 1.66667 3.52508 1.66667 5.81675V10.8001V11.6334C1.66667 13.9251 3.53334 15.7834 5.83334 15.7834H7.08334C7.30834 15.7834 7.60834 15.9334 7.75001 16.1167L9.00001 17.7751C9.55001 18.5084 10.45 18.5084 11 17.7751L12.25 16.1167C12.4083 15.9084 12.6583 15.7834 12.9167 15.7834H14.1667C16.4667 15.7834 18.3333 13.9251 18.3333 11.6334V5.81675C18.3333 3.52508 16.4667 1.66675 14.1667 1.66675ZM10.8333 11.4584H5.83334C5.49167 11.4584 5.20834 11.1751 5.20834 10.8334C5.20834 10.4917 5.49167 10.2084 5.83334 10.2084H10.8333C11.175 10.2084 11.4583 10.4917 11.4583 10.8334C11.4583 11.1751 11.175 11.4584 10.8333 11.4584ZM14.1667 7.29175H5.83334C5.49167 7.29175 5.20834 7.00842 5.20834 6.66675C5.20834 6.32508 5.49167 6.04175 5.83334 6.04175H14.1667C14.5083 6.04175 14.7917 6.32508 14.7917 6.66675C14.7917 7.00842 14.5083 7.29175 14.1667 7.29175Z" fill="white"/>
</svg>
