<svg width="19" height="18" viewBox="0 0 19 18" fill="none" xmlns="http://www.w3.org/2000/svg">
<path d="M9.82495 13.9663L9.41577 13.9292C6.65206 13.6798 4.48511 11.359 4.48511 8.54248V7.35791C4.48511 7.33364 4.49344 7.3154 4.50562 7.30322C4.51779 7.29105 4.53603 7.28271 4.5603 7.28271C4.58431 7.28281 4.60191 7.29116 4.61401 7.30322C4.62619 7.3154 4.63452 7.33364 4.63452 7.35791V8.55029C4.63467 11.4537 6.99671 13.8149 9.90015 13.8149C12.8035 13.8148 15.1646 11.4536 15.1648 8.55029V7.36475C15.1649 7.34062 15.1741 7.32317 15.1863 7.31104C15.1984 7.29895 15.2158 7.28955 15.24 7.28955C15.2656 7.28959 15.294 7.30757 15.3074 7.33643L15.3152 7.36963V8.54248C15.3152 11.3595 13.1404 13.6869 10.3855 13.9292L9.97534 13.9653V15.9751C9.97532 15.9993 9.96598 16.0166 9.95386 16.0288C9.94172 16.0409 9.92429 16.0502 9.90015 16.0503C9.87588 16.0503 9.85764 16.041 9.84546 16.0288C9.83347 16.0167 9.82497 15.9991 9.82495 15.9751V13.9663Z" fill="white" stroke="white" stroke-width="0.9"/>
<path d="M9.90039 1.9502C11.4817 1.95043 12.7646 3.2341 12.7646 4.81543V8.65527C12.7645 10.2365 11.4816 11.5193 9.90039 11.5195C8.31901 11.5195 7.0353 10.2366 7.03516 8.65527V4.81543C7.03516 3.23396 8.31892 1.9502 9.90039 1.9502ZM10.8604 4.18164C10.1271 3.98564 9.34495 4.01788 8.62793 4.2793V4.28027C8.16428 4.44251 7.93169 4.95911 8.09766 5.41211C8.20258 5.69827 8.44356 5.90062 8.72266 5.96973C8.50524 6.18314 8.4016 6.5035 8.48926 6.82422V6.8252C8.61031 7.29375 9.08837 7.59105 9.5791 7.45312H9.58008C9.79249 7.3933 10.0151 7.39326 10.2275 7.45312L10.2441 7.45801L10.2617 7.46094C10.2911 7.46681 10.3732 7.48535 10.4629 7.48535C10.8579 7.48516 11.2112 7.2236 11.3174 6.8291L11.3184 6.8252C11.3992 6.51183 11.3023 6.18195 11.0811 5.96387C11.3546 5.89697 11.5924 5.70504 11.7012 5.41504L11.7021 5.41211C11.8732 4.94542 11.6221 4.44532 11.1729 4.28027L11.1719 4.2793L10.8604 4.18164Z" fill="white" stroke="white" stroke-width="0.9"/>
</svg>
