<svg width="16" height="16" viewBox="0 0 16 16" fill="none" xmlns="http://www.w3.org/2000/svg">
<path d="M3.79998 6.7998C3.13998 6.7998 2.59998 7.3398 2.59998 7.9998C2.59998 8.6598 3.13998 9.19981 3.79998 9.19981C4.45998 9.19981 4.99998 8.6598 4.99998 7.9998C4.99998 7.3398 4.45998 6.7998 3.79998 6.7998Z" stroke="white" stroke-width="1.08"/>
<path d="M12.2 6.7998C11.54 6.7998 11 7.3398 11 7.9998C11 8.6598 11.54 9.19981 12.2 9.19981C12.86 9.19981 13.4 8.6598 13.4 7.9998C13.4 7.3398 12.86 6.7998 12.2 6.7998Z" stroke="white" stroke-width="1.08"/>
<path d="M7.99999 6.7998C7.33999 6.7998 6.79999 7.3398 6.79999 7.9998C6.79999 8.6598 7.33999 9.19981 7.99999 9.19981C8.65999 9.19981 9.19999 8.6598 9.19999 7.9998C9.19999 7.3398 8.65999 6.7998 7.99999 6.7998Z" stroke="white" stroke-width="1.08"/>
</svg>
