<svg width="22" height="22" viewBox="0 0 22 22" fill="none" xmlns="http://www.w3.org/2000/svg">
<path d="M4.58333 9.1665C3.575 9.1665 2.75 9.9915 2.75 10.9998C2.75 12.0082 3.575 12.8332 4.58333 12.8332C5.59167 12.8332 6.41667 12.0082 6.41667 10.9998C6.41667 9.9915 5.59167 9.1665 4.58333 9.1665Z" fill="white" stroke="white" stroke-width="1.2"/>
<path d="M17.4167 9.1665C16.4084 9.1665 15.5834 9.9915 15.5834 10.9998C15.5834 12.0082 16.4084 12.8332 17.4167 12.8332C18.425 12.8332 19.25 12.0082 19.25 10.9998C19.25 9.9915 18.425 9.1665 17.4167 9.1665Z" fill="white" stroke="white" stroke-width="1.2"/>
<path d="M11 9.1665C9.99163 9.1665 9.16663 9.9915 9.16663 10.9998C9.16663 12.0082 9.99163 12.8332 11 12.8332C12.0083 12.8332 12.8333 12.0082 12.8333 10.9998C12.8333 9.9915 12.0083 9.1665 11 9.1665Z" stroke="white" stroke-width="1.2"/>
</svg>
