<svg width="22" height="23" viewBox="0 0 22 23" fill="none" xmlns="http://www.w3.org/2000/svg">
<path d="M10.9904 2.73389C11.8553 2.73389 12.6027 3.17883 13.008 3.896L13.0695 4.00635L13.1838 4.06006C14.8748 4.86737 16.0451 6.592 16.0451 8.58545V10.9048C16.0452 11.1421 16.098 11.4343 16.1701 11.7007C16.2245 11.9015 16.2957 12.1096 16.3781 12.2896L16.4641 12.4585L16.469 12.4673L17.386 13.9888L17.3869 13.9907C17.6806 14.4727 17.7319 15.0405 17.5373 15.5571C17.3403 16.08 16.9343 16.4761 16.4113 16.6479H16.4094C14.6737 17.2295 12.847 17.517 11.0188 17.5171C9.1905 17.5171 7.36381 17.2302 5.62912 16.6401L5.62814 16.6392L5.41818 16.5571C4.94705 16.3433 4.60667 15.9864 4.45529 15.564L4.45432 15.5601C4.27183 15.0633 4.33093 14.5116 4.64182 13.9897L5.5676 12.4585L5.57053 12.4536C5.69125 12.2467 5.79407 11.9667 5.86642 11.7007C5.93867 11.435 5.99136 11.1422 5.99142 10.9048V8.58545C5.99142 6.61801 7.13678 4.91038 8.79514 4.08545L8.90549 4.02979L8.96603 3.92236C9.37294 3.19463 10.1384 2.73402 10.9904 2.73389Z" fill="url(#paint0_linear_302_46669)" stroke="url(#paint1_linear_302_46669)" stroke-width="0.8"/>
<path d="M9.3974 19.3501V19.3511C9.92939 19.3977 10.4732 19.4263 11.0185 19.4263C11.5548 19.4263 12.0893 19.3978 12.6122 19.3511H12.6142C12.6916 19.3437 12.7829 19.3366 12.8779 19.3286C12.4462 19.8984 11.765 20.2671 10.9999 20.2671C10.3808 20.2671 9.77089 20.0153 9.34467 19.5737L9.33783 19.5659L9.33002 19.5591C9.25436 19.4881 9.18454 19.4083 9.12006 19.3228C9.21153 19.3329 9.30427 19.3423 9.3974 19.3501Z" fill="url(#paint2_linear_302_46669)" stroke="url(#paint3_linear_302_46669)" stroke-width="0.8"/>
<defs>
<linearGradient id="paint0_linear_302_46669" x1="3.95139" y1="10.1252" x2="18.0531" y2="10.1252" gradientUnits="userSpaceOnUse">
<stop stop-color="#9700FF"/>
<stop offset="0.658654" stop-color="#B95AFB"/>
</linearGradient>
<linearGradient id="paint1_linear_302_46669" x1="3.95139" y1="10.1252" x2="18.0531" y2="10.1252" gradientUnits="userSpaceOnUse">
<stop stop-color="#9700FF"/>
<stop offset="0.658654" stop-color="#B95AFB"/>
</linearGradient>
<linearGradient id="paint2_linear_302_46669" x1="8.41498" y1="19.7502" x2="13.5941" y2="19.7502" gradientUnits="userSpaceOnUse">
<stop stop-color="#9700FF"/>
<stop offset="0.658654" stop-color="#B95AFB"/>
</linearGradient>
<linearGradient id="paint3_linear_302_46669" x1="8.41498" y1="19.7502" x2="13.5941" y2="19.7502" gradientUnits="userSpaceOnUse">
<stop stop-color="#9700FF"/>
<stop offset="0.658654" stop-color="#B95AFB"/>
</linearGradient>
</defs>
</svg>
