<svg width="18" height="18" viewBox="0 0 18 18" fill="none" xmlns="http://www.w3.org/2000/svg">
<path d="M12.105 2.22003L5.33247 4.47003C0.779966 5.99253 0.779966 8.47503 5.33247 9.99003L7.34247 10.6575L8.00997 12.6675C9.52497 17.22 12.015 17.22 13.53 12.6675L15.7875 5.90253C16.7925 2.86503 15.1425 1.20753 12.105 2.22003ZM12.345 6.25503L9.49497 9.12003C9.38247 9.23253 9.23997 9.28503 9.09747 9.28503C8.95497 9.28503 8.81247 9.23253 8.69997 9.12003C8.48247 8.90253 8.48247 8.54253 8.69997 8.32503L11.55 5.46003C11.7675 5.24253 12.1275 5.24253 12.345 5.46003C12.5625 5.67753 12.5625 6.03753 12.345 6.25503Z" fill="white"/>
</svg>
