<svg width="19" height="18" viewBox="0 0 19 18" fill="none" xmlns="http://www.w3.org/2000/svg">
<path d="M14.3344 5.90918C14.3786 5.87568 14.4475 5.88096 14.4886 5.93262H14.4896C15.8398 7.73762 15.8397 10.2623 14.4896 12.0674C14.4761 12.0854 14.4628 12.0955 14.4506 12.1016C14.4377 12.1078 14.4206 12.1123 14.3998 12.1123C14.382 12.1123 14.3616 12.1088 14.3304 12.0879C14.2803 12.0466 14.2758 11.9783 14.309 11.9346L14.3099 11.9326C15.6075 10.205 15.6076 7.79489 14.3099 6.06738L14.309 6.06641L14.2904 6.02832C14.2802 5.98742 14.2939 5.93982 14.3344 5.90918Z" fill="white" stroke="white" stroke-width="0.9"/>
<path d="M15.7069 4.03369C15.7511 4.00019 15.8201 4.00547 15.8612 4.05713H15.8622C18.0445 6.96457 18.0445 11.0345 15.8622 13.9419L15.8583 13.9478L15.8544 13.9546C15.8452 13.9677 15.8195 13.9868 15.7723 13.9868C15.7545 13.9868 15.7342 13.9833 15.703 13.9624C15.6529 13.9211 15.6484 13.8528 15.6815 13.8091L15.6825 13.8071C17.805 10.9771 17.805 7.02188 15.6825 4.19189L15.6815 4.19092L15.663 4.15283C15.6527 4.11193 15.6665 4.06434 15.7069 4.03369Z" fill="white" stroke="white" stroke-width="0.9"/>
<path d="M8.64514 3.5542C9.65507 2.92472 10.5473 2.86882 11.1959 3.22705V3.22803C11.8379 3.58686 12.2623 4.36711 12.2623 5.55713V12.4419C12.2623 13.558 11.8891 14.314 11.3131 14.6997L11.1969 14.771C10.9314 14.9185 10.6318 14.9927 10.3121 14.9927C9.8769 14.9926 9.39116 14.8635 8.87073 14.5776L8.64612 14.4458L6.45667 13.0737L6.44885 13.0688C6.23662 12.9416 5.98478 12.8618 5.72229 12.8618H4.65002C3.82269 12.8618 3.24916 12.6358 2.88147 12.2681C2.51386 11.9004 2.28772 11.3267 2.28772 10.4995V7.49951C2.28777 6.67233 2.51382 6.09861 2.88147 5.73096C3.24917 5.36335 3.8228 5.13721 4.65002 5.13721H5.72229C5.98471 5.13721 6.23666 5.05839 6.44885 4.93115L6.45667 4.92627L8.64417 3.55322L8.64514 3.5542Z" fill="white" stroke="white" stroke-width="0.9"/>
</svg>
