<svg width="28" height="28" viewBox="0 0 28 28" fill="none" xmlns="http://www.w3.org/2000/svg">
<rect width="28" height="28" rx="14" fill="#2DB907" fill-opacity="0.5"/>
<rect x="7.40002" y="7.39996" width="12" height="12" rx="6" fill="white"/>
<path d="M14 4C8.49 4 4 8.49 4 14C4 19.51 8.49 24 14 24C19.51 24 24 19.51 24 14C24 8.49 19.51 4 14 4ZM18.78 11.7L13.11 17.37C12.97 17.51 12.78 17.59 12.58 17.59C12.38 17.59 12.19 17.51 12.05 17.37L9.22 14.54C8.93 14.25 8.93 13.77 9.22 13.48C9.51 13.19 9.99 13.19 10.28 13.48L12.58 15.78L17.72 10.64C18.01 10.35 18.49 10.35 18.78 10.64C19.07 10.93 19.07 11.4 18.78 11.7Z" fill="#2DB907"/>
</svg>
