<svg width="16" height="15" viewBox="0 0 16 15" fill="none" xmlns="http://www.w3.org/2000/svg">
<path d="M10 14.8866H6.00004C2.38004 14.8866 0.833374 13.34 0.833374 9.71998V5.71998C0.833374 2.09998 2.38004 0.553314 6.00004 0.553314H10C13.62 0.553314 15.1667 2.09998 15.1667 5.71998V9.71998C15.1667 13.34 13.62 14.8866 10 14.8866ZM6.00004 1.55331C2.92671 1.55331 1.83337 2.64665 1.83337 5.71998V9.71998C1.83337 12.7933 2.92671 13.8866 6.00004 13.8866H10C13.0734 13.8866 14.1667 12.7933 14.1667 9.71998V5.71998C14.1667 2.64665 13.0734 1.55331 10 1.55331H6.00004Z" fill="white"/>
</svg>
