<svg width="16" height="16" viewBox="0 0 16 16" fill="none" xmlns="http://www.w3.org/2000/svg">
<path d="M8.318 13.0518H4.526C2.63 13.0518 2 11.7918 2 10.5258V5.47375C2 3.57775 2.63 2.94775 4.526 2.94775H8.318C10.214 2.94775 10.844 3.57775 10.844 5.47375V10.5258C10.844 12.4218 10.208 13.0518 8.318 13.0518Z" stroke="white" stroke-width="0.864" stroke-linecap="round" stroke-linejoin="round"/>
<path d="M12.512 11.0601L10.844 9.89008V6.10408L12.512 4.93408C13.328 4.36408 14 4.71208 14 5.71408V10.2861C14 11.2881 13.328 11.6361 12.512 11.0601Z" stroke="white" stroke-width="0.864" stroke-linecap="round" stroke-linejoin="round"/>
<path d="M7.69999 7.4001C8.19704 7.4001 8.59999 6.99715 8.59999 6.5001C8.59999 6.00304 8.19704 5.6001 7.69999 5.6001C7.20293 5.6001 6.79999 6.00304 6.79999 6.5001C6.79999 6.99715 7.20293 7.4001 7.69999 7.4001Z" stroke="white" stroke-width="0.864" stroke-linecap="round" stroke-linejoin="round"/>
</svg>
