<svg width="19" height="18" viewBox="0 0 19 18" fill="none" xmlns="http://www.w3.org/2000/svg">
<path d="M5.77502 2.8877H10.275C11.4653 2.8877 12.1945 3.11237 12.6412 3.51953C13.0814 3.9209 13.3411 4.58624 13.3805 5.70117L13.4098 6.5332L14.0895 6.05273L15.191 5.27344C15.5687 5.00877 15.868 4.93285 16.0807 4.92383C16.2954 4.91479 16.4536 4.97299 16.5494 5.02441L16.5573 5.02832C16.6551 5.07842 16.795 5.17528 16.9117 5.35645C17.0272 5.53577 17.1373 5.82439 17.1373 6.28516V11.7148C17.1373 12.1756 17.0272 12.4642 16.9117 12.6436C16.795 12.8247 16.6551 12.9216 16.5573 12.9717L16.5533 12.9746C16.4572 13.0252 16.3109 13.0801 16.1246 13.0801C15.9061 13.08 15.5908 13.0099 15.193 12.7275H15.192L14.0895 11.9473L13.4098 11.4668L13.3805 12.2988C13.3411 13.4138 13.0814 14.0791 12.6412 14.4805C12.1945 14.8876 11.4653 15.1123 10.275 15.1123H5.77502C4.5777 15.1123 3.821 14.6987 3.3551 14.1396C2.87775 13.5667 2.66272 12.7884 2.66272 12V6C2.66272 4.75881 2.90719 4.01822 3.35022 3.5752C3.79325 3.13217 4.53383 2.8877 5.77502 2.8877ZM9.15002 5.26465C8.13055 5.26465 7.28967 6.09492 7.28967 7.125C7.28967 8.15508 8.13055 8.98535 9.15002 8.98535C10.1695 8.98535 11.0104 8.15508 11.0104 7.125C11.0104 6.09492 10.1695 5.26465 9.15002 5.26465Z" fill="white" stroke="white" stroke-width="0.9"/>
</svg>
